<svg xmlns="http://www.w3.org/2000/svg" xmlns:xlink="http://www.w3.org/1999/xlink" width="86.567" height="94.448" viewBox="0 0 86.567 94.448">
  <defs>
    <clipPath id="clip-path">
      <rect id="Rectangle_30" data-name="Rectangle 30" width="86.567" height="94.448" fill="none"/>
    </clipPath>
  </defs>
  <g id="Group_6" data-name="Group 6" transform="translate(0 0)">
    <g id="Group_5" data-name="Group 5" transform="translate(0 0)" clip-path="url(#clip-path)">
      <path id="Path_46" data-name="Path 46" d="M25.442,44.43a8.393,8.393,0,1,1,8.393-8.393,8.4,8.4,0,0,1-8.393,8.393m0-13.8a5.4,5.4,0,1,0,5.4,5.4,5.41,5.41,0,0,0-5.4-5.4" transform="translate(17.842 28.931)" fill="#fff"/>
      <path id="Path_47" data-name="Path 47" d="M44.226,56.614H14.7a1.494,1.494,0,0,1-1.5-1.494V45.115a8.975,8.975,0,0,1,8.966-8.964h.46a3.521,3.521,0,0,1,2.714,1.2,5.382,5.382,0,0,0,8.237,0,3.521,3.521,0,0,1,2.714-1.2h.463a8.974,8.974,0,0,1,8.964,8.964V55.12a1.494,1.494,0,0,1-1.5,1.494M16.195,53.626H42.732V45.115a5.981,5.981,0,0,0-5.974-5.974H36.3a.6.6,0,0,0-.43.143,8.372,8.372,0,0,1-12.8,0,.6.6,0,0,0-.43-.143h-.46a5.981,5.981,0,0,0-5.976,5.974Z" transform="translate(13.819 37.832)" fill="#fff"/>
      <path id="Path_48" data-name="Path 48" d="M38.647,44.414a8.393,8.393,0,1,1,8.393-8.395,8.4,8.4,0,0,1-8.393,8.395m0-13.8a5.4,5.4,0,1,0,5.4,5.4,5.41,5.41,0,0,0-5.4-5.4" transform="translate(31.661 28.914)" fill="#fff"/>
      <path id="Path_49" data-name="Path 49" d="M34.406,39.8a1.494,1.494,0,0,1-1.142-.53.6.6,0,0,0-.432-.143h-.458a6.046,6.046,0,0,0-1.279.137,1.495,1.495,0,1,1-.641-2.92,9.113,9.113,0,0,1,1.92-.2h.458a3.523,3.523,0,0,1,2.714,1.2,1.5,1.5,0,0,1-1.14,2.46" transform="translate(30.642 37.816)" fill="#fff"/>
      <path id="Path_50" data-name="Path 50" d="M56.153,56.6H29.127a1.494,1.494,0,1,1,0-2.988H54.659V45.1a5.983,5.983,0,0,0-5.976-5.976h-.46a.6.6,0,0,0-.43.143,8.372,8.372,0,0,1-12.8,0,1.494,1.494,0,0,1,2.282-1.93,5.384,5.384,0,0,0,8.239,0,3.526,3.526,0,0,1,2.714-1.2h.46A8.973,8.973,0,0,1,57.647,45.1V55.1A1.494,1.494,0,0,1,56.153,56.6" transform="translate(28.918 37.816)" fill="#fff"/>
      <path id="Path_51" data-name="Path 51" d="M12.236,44.39A8.393,8.393,0,1,1,20.628,36a8.4,8.4,0,0,1-8.393,8.395m0-13.8a5.4,5.4,0,1,0,5.4,5.4,5.41,5.41,0,0,0-5.4-5.4" transform="translate(4.022 28.889)" fill="#fff"/>
      <path id="Path_52" data-name="Path 52" d="M11.278,39.774a1.5,1.5,0,0,1-1.14-2.46,3.523,3.523,0,0,1,2.714-1.2h.46a8.971,8.971,0,0,1,1.916.2,1.494,1.494,0,1,1-.634,2.92,6.109,6.109,0,0,0-1.281-.137h-.46a.6.6,0,0,0-.432.143,1.491,1.491,0,0,1-1.142.53" transform="translate(10.239 37.792)" fill="#fff"/>
      <path id="Path_53" data-name="Path 53" d="M28.52,56.576H1.494A1.494,1.494,0,0,1,0,55.082V45.077a8.973,8.973,0,0,1,8.964-8.964h.46a3.526,3.526,0,0,1,2.714,1.2,5.382,5.382,0,0,0,8.239,0,1.494,1.494,0,1,1,2.282,1.928,8.37,8.37,0,0,1-12.8,0,.6.6,0,0,0-.432-.143h-.46A5.981,5.981,0,0,0,2.99,45.077v8.511H28.52a1.494,1.494,0,1,1,0,2.988" transform="translate(0 37.792)" fill="#fff"/>
      <path id="Path_54" data-name="Path 54" d="M74.753,54.738a1.5,1.5,0,0,1-1.369-2.092A35.5,35.5,0,1,0,5.334,38.482,35.292,35.292,0,0,0,8.093,52.227a1.494,1.494,0,0,1-2.755,1.158,38.487,38.487,0,1,1,73.973-14.9,38.226,38.226,0,0,1-3.186,15.357,1.5,1.5,0,0,1-1.371.9" transform="translate(2.455 0)" fill="#fff"/>
      <path id="Path_55" data-name="Path 55" d="M51.718,39.976a1.494,1.494,0,0,1-1.494-1.494C50.224,18.91,42.048,2.988,32,2.988S13.772,18.91,13.772,38.482a1.494,1.494,0,1,1-2.988,0C10.784,16.9,20.1,0,32,0S53.212,16.9,53.212,38.482a1.494,1.494,0,0,1-1.494,1.494" transform="translate(11.285 0)" fill="#fff"/>
      <path id="Path_56" data-name="Path 56" d="M77.817,31.146a1.494,1.494,0,0,1-1.494-1.494c0-10.05-15.924-18.226-35.494-18.226S5.336,19.6,5.336,29.652a1.495,1.495,0,0,1-2.99,0c0-11.9,16.9-21.214,38.482-21.214s38.482,9.318,38.482,21.214a1.494,1.494,0,0,1-1.494,1.494" transform="translate(2.455 8.831)" fill="#fff"/>
      <path id="Path_57" data-name="Path 57" d="M21.914,39.976a1.494,1.494,0,0,1-1.494-1.494V1.494a1.494,1.494,0,0,1,2.988,0V38.482a1.494,1.494,0,0,1-1.494,1.494" transform="translate(21.37 0)" fill="#fff"/>
      <path id="Path_58" data-name="Path 58" d="M77.817,21.062H3.84a1.494,1.494,0,0,1,0-2.988H77.817a1.494,1.494,0,0,1,0,2.988" transform="translate(2.455 18.915)" fill="#fff"/>
      <path id="Path_59" data-name="Path 59" d="M11.277,34.28a1.495,1.495,0,0,1-1.492-1.5V25.527a4.986,4.986,0,0,1,4.981-4.981H24.821a4.98,4.98,0,1,1,0,9.96H16.166l-3.9,3.405a1.5,1.5,0,0,1-.984.368m3.489-10.746a2,2,0,0,0-1.993,1.993V29.5l1.852-1.613a1.487,1.487,0,0,1,.98-.368h9.215a1.992,1.992,0,0,0,0-3.985Z" transform="translate(10.24 21.502)" fill="#fff"/>
      <path id="Path_60" data-name="Path 60" d="M42.752,34.733a1.5,1.5,0,0,1-.982-.368l-3.907-3.4H29.21a4.982,4.982,0,0,1,0-9.964H39.265a4.989,4.989,0,0,1,4.981,4.983v7.257a1.5,1.5,0,0,1-1.494,1.5M29.21,23.987a1.992,1.992,0,0,0,0,3.985h9.211a1.493,1.493,0,0,1,.982.368l1.852,1.615V25.98a1.994,1.994,0,0,0-1.991-1.993Z" transform="translate(25.356 21.974)" fill="#fff"/>
    </g>
  </g>
</svg>
