<svg xmlns="http://www.w3.org/2000/svg" xmlns:xlink="http://www.w3.org/1999/xlink" width="116.69" height="75.43" viewBox="0 0 116.69 75.43">
  <defs>
    <clipPath id="clip-path">
      <rect id="Rectangle_31" data-name="Rectangle 31" width="116.69" height="75.43" fill="none"/>
    </clipPath>
  </defs>
  <g id="Group_8" data-name="Group 8" transform="translate(0 0)">
    <g id="Group_7" data-name="Group 7" transform="translate(0 0)" clip-path="url(#clip-path)">
      <path id="Path_61" data-name="Path 61" d="M40.152,29.535a1.846,1.846,0,0,1-1.847-1.844V27.24a8.635,8.635,0,1,0-17.27,0v.451a1.845,1.845,0,0,1-3.691,0V27.24A12.325,12.325,0,1,1,42,27.24v.451a1.843,1.843,0,0,1-1.844,1.844" transform="translate(28.674 24.654)" fill="#fff"/>
      <path id="Path_62" data-name="Path 62" d="M26.239,23.042a6.817,6.817,0,1,1,6.819-6.816,6.824,6.824,0,0,1-6.819,6.816m0-9.944a3.127,3.127,0,1,0,3.128,3.128A3.13,3.13,0,0,0,26.239,13.1" transform="translate(32.105 15.552)" fill="#fff"/>
      <path id="Path_63" data-name="Path 63" d="M36.439,53.154A23.187,23.187,0,1,1,59.628,29.968,23.214,23.214,0,0,1,36.439,53.154m0-42.684a19.5,19.5,0,1,0,19.5,19.5,19.521,19.521,0,0,0-19.5-19.5" transform="translate(21.905 11.207)" fill="#fff"/>
      <path id="Path_64" data-name="Path 64" d="M42.1,43.966A34.385,34.385,0,0,1,9.936,21.515,1.845,1.845,0,1,1,13.4,20.244a30.579,30.579,0,0,0,57.4,0,1.845,1.845,0,1,1,3.465,1.271A34.385,34.385,0,0,1,42.1,43.966" transform="translate(16.24 31.465)" fill="#fff"/>
      <path id="Path_65" data-name="Path 65" d="M53.042,21.519A1.843,1.843,0,0,1,51.2,19.675v-.427a8.052,8.052,0,0,0-16.1,0v.427a1.845,1.845,0,0,1-3.691,0v-.427a11.742,11.742,0,0,1,23.483,0v.427a1.843,1.843,0,0,1-1.844,1.844" transform="translate(51.915 12.413)" fill="#fff"/>
      <path id="Path_66" data-name="Path 66" d="M39.9,15.389a6.54,6.54,0,1,1,6.54-6.54,6.548,6.548,0,0,1-6.54,6.54M39.9,6a2.85,2.85,0,1,0,2.85,2.85A2.853,2.853,0,0,0,39.9,6" transform="translate(55.157 3.818)" fill="#fff"/>
      <path id="Path_67" data-name="Path 67" d="M49.1,43.257a21.535,21.535,0,0,1-7.97-1.515,1.845,1.845,0,0,1,1.361-3.431A17.942,17.942,0,1,0,31.461,18.363a1.845,1.845,0,1,1-3.63-.666A21.63,21.63,0,1,1,49.1,43.257" transform="translate(45.959 0.001)" fill="#fff"/>
      <path id="Path_68" data-name="Path 68" d="M25.365,21.519a1.846,1.846,0,0,1-1.847-1.844v-.427a8.051,8.051,0,0,0-16.1,0v.427a1.845,1.845,0,0,1-3.691,0v-.427a11.742,11.742,0,0,1,23.483,0v.427a1.843,1.843,0,0,1-1.844,1.844" transform="translate(6.16 12.413)" fill="#fff"/>
      <path id="Path_69" data-name="Path 69" d="M12.227,15.389a6.54,6.54,0,1,1,6.54-6.54,6.548,6.548,0,0,1-6.54,6.54m0-9.39a2.85,2.85,0,1,0,2.85,2.85A2.853,2.853,0,0,0,12.227,6" transform="translate(9.402 3.818)" fill="#fff"/>
      <path id="Path_70" data-name="Path 70" d="M21.629,43.257A21.629,21.629,0,1,1,42.9,17.7a1.845,1.845,0,1,1-3.63.666A17.924,17.924,0,1,0,28.238,38.312,1.845,1.845,0,0,1,29.6,41.743a21.535,21.535,0,0,1-7.97,1.515" transform="translate(0 0.001)" fill="#fff"/>
    </g>
  </g>
</svg>
