<svg id="Group_17" data-name="Group 17" xmlns="http://www.w3.org/2000/svg" xmlns:xlink="http://www.w3.org/1999/xlink" width="39.571" height="35.108" viewBox="0 0 39.571 35.108">
  <defs>
    <clipPath id="clip-path">
      <rect id="Rectangle_45" data-name="Rectangle 45" width="39.571" height="35.108" fill="none"/>
    </clipPath>
  </defs>
  <g id="Group_16" data-name="Group 16" clip-path="url(#clip-path)">
    <path id="Path_74" data-name="Path 74" d="M450.05,709.588c.385,2.422-1.721,4.769-4.7,5.242s-5.711-1.106-6.1-3.527,10.415-4.137,10.8-1.715" transform="translate(-421.698 -680.125)" fill="#ffd400"/>
    <path id="Path_75" data-name="Path 75" d="M588.522,708.458a7.42,7.42,0,0,1-1.126,6.42c.063-.008.126-.012.189-.022,2.982-.474,5.088-2.821,4.7-5.242-.146-.92-1.8-1.242-3.766-1.156" transform="translate(-563.936 -680.15)" fill="#ffc000"/>
    <path id="Path_76" data-name="Path 76" d="M173.107,29.477l-.394.063-2.234-7.745c-1.441-4.786-4.659-7.929-8.934-8.749a4.7,4.7,0,1,0-8.994,1.545,11.394,11.394,0,0,0-5.594,10.94l.23,8.064-.585.093A3.5,3.5,0,0,0,143.69,37.7h0a3.5,3.5,0,0,0,4.011,2.911L174.206,36.4a3.5,3.5,0,0,0,2.911-4.011h0a3.5,3.5,0,0,0-4.01-2.911M157.764,11.554a1.345,1.345,0,0,1,0,.142.128.128,0,0,1,0,.016c-.018.085-.037.171-.063.254a.168.168,0,0,1-.012.028c-.007.014-.08.159-.126.229l-.009.012a1.743,1.743,0,0,1-.189.2.2.2,0,0,1-.026.02l-.006,0c-.052.033-.16.1-.213.132l-.007,0-.015.007-.016.006c-.086.03-.173.055-.261.078a.182.182,0,0,1-.034.006h-.006c-.056,0-.2.006-.259.006H156.5l-.019,0c-.057-.013-.187-.045-.243-.06h0l-.009,0-.019-.008-.009,0c-.055-.028-.163-.088-.217-.119l-.005,0a.219.219,0,0,1-.034-.025c-.067-.059-.134-.119-.2-.184l-.016-.019a.955.955,0,0,1-.205-.458l-.006-.257a.958.958,0,0,1,.177-.457l.026-.028a1.123,1.123,0,0,1,.277-.389.714.714,0,0,1,.334-.168.727.727,0,0,1,.38-.043l.037.006.017,0c.084.02.169.04.252.062a.319.319,0,0,1,.054.02,2.646,2.646,0,0,1,.236.129l.018.012a2.253,2.253,0,0,1,.193.181l.013.015a1.081,1.081,0,0,1,.228.512,1.265,1.265,0,0,1,0,.143" transform="translate(-137.909 -7.682)" fill="#ffd400"/>
    <path id="Path_77" data-name="Path 77" d="M150.124,49.161c-1.627-9.14-.047-15.489,4.881-17.438-2.763-1.842-1.907-4.829-.569-6.859a4.679,4.679,0,0,0-1.885,5.915,11.394,11.394,0,0,0-5.594,10.94l.23,8.064-.585.093a3.5,3.5,0,0,0-2.911,4.01h0A3.5,3.5,0,0,0,147.7,56.8l1.72-.273a3.054,3.054,0,0,1-.813-5.972c.02-.008,1.409-1.324,1.517-1.39" transform="translate(-137.909 -23.871)" fill="#ffdf00"/>
    <path id="Path_78" data-name="Path 78" d="M507.47,30.746l-.394.063-2.234-7.745c-1.441-4.786-4.659-7.929-8.934-8.749a4.686,4.686,0,0,0-3.989-4.99c.281.567,1.385,1.027,1.713,2.585a11.517,11.517,0,0,1,.1,4.189c.07.19,5.938.267,7.828,9.564.46,2.263,1.033,5.461-.522,7.284,2.743.967,3.637,3.472,1.85,5.624l5.68-.9a3.5,3.5,0,0,0,2.911-4.011h0a3.5,3.5,0,0,0-4.01-2.911" transform="translate(-472.272 -8.952)" fill="#ffc000"/>
    <path id="Path_79" data-name="Path 79" d="M257.977,527.321l-.394.063-.086-.827c-.44.194-16.591,4.188-25.449,3.774l.009,1.088c3.081.9,22.859-1.744,25.92-4.1" transform="translate(-222.779 -505.527)" fill="#ff9e00"/>
    <path id="Path_80" data-name="Path 80" d="M313.373,225.638a1.4,1.4,0,0,0-1.426-.553c-.043.009-.082.029-.124.04l-.012,0a2.087,2.087,0,0,0-1.275.444,4.063,4.063,0,0,0-1.236,1.569,1.944,1.944,0,0,0,.2,2.276,2.206,2.206,0,0,0,2.231.236,3.073,3.073,0,0,0,2-2.673,2.177,2.177,0,0,0-.356-1.338" transform="translate(-296.688 -216.066)" fill="#fcf600"/>
    <path id="Path_81" data-name="Path 81" d="M303.583,367.98a.958.958,0,0,0-.31-.379l-.215-.118a.955.955,0,0,0-.5-.053l-.108.017a.986.986,0,0,0-.8,1.1l.074.246a.958.958,0,0,0,.31.379l.215.118a.954.954,0,0,0,.5.053l.108-.017a.986.986,0,0,0,.8-1.1l-.074-.246" transform="translate(-289.593 -352.744)" fill="#fcf600"/>
    <path id="Path_82" data-name="Path 82" d="M203.05,705.461c-1.808-.7-3.891-.524-5.787-.92-1.158-.242-1.367,1.607-.205,1.833,1.977.384,4.313.713,6.059-.491a.249.249,0,0,0-.067-.422" transform="translate(-188.445 -676.382)" fill="#fcf600"/>
    <path id="Path_83" data-name="Path 83" d="M406.315,708.372l-1.3.184a.54.54,0,0,0,.169,1.066l1.292-.228a.517.517,0,0,0-.162-1.021" transform="translate(-388.42 -680.075)" fill="#fcf600"/>
    <path id="Path_84" data-name="Path 84" d="M438.718,753.793a6.16,6.16,0,0,1-5.44-3.273l.565-.3a5.521,5.521,0,0,0,10.316-1.638l.63.11a6.165,6.165,0,0,1-6.071,5.1" transform="translate(-415.974 -718.685)" fill="#841918"/>
    <path id="Path_85" data-name="Path 85" d="M139.463,33.289a3.824,3.824,0,0,1-.591-7.6l.308-.049-.222-7.783a11.634,11.634,0,0,1,5.514-11.082,4.945,4.945,0,0,1-.257-.962,5.024,5.024,0,1,1,9.923-1.576,4.93,4.93,0,0,1,.058.868c4.237.92,7.475,4.154,8.909,8.915l2.157,7.477.115-.018a3.824,3.824,0,0,1,1.2,7.553l-26.505,4.209a3.855,3.855,0,0,1-.608.048M149.18.64a4.37,4.37,0,0,0-4.015,6.14l.114.26-.245.144A11.016,11.016,0,0,0,139.6,17.822l.238,8.361-.863.136a3.185,3.185,0,0,0,1,6.29L166.476,28.4a3.185,3.185,0,1,0-1-6.29l-.673.107L162.492,14.2c-1.412-4.691-4.5-7.72-8.687-8.524l-.279-.054.021-.283A4.369,4.369,0,0,0,149.18.64" transform="translate(-130.23 0)" fill="#841918"/>
    <path id="Path_86" data-name="Path 86" d="M432.431,60.249a1.623,1.623,0,1,1,.255-.02,1.607,1.607,0,0,1-.255.02m0-2.6a1.007,1.007,0,0,0-.155.012.983.983,0,1,0,.155-.012" transform="translate(-413.604 -54.728)" fill="#841918"/>
    <path id="Path_87" data-name="Path 87" d="M768.476,68c.189.107.374.22.553.342q.122.083.242.17l.119.088c.1.07-.164-.131-.031-.023a8.7,8.7,0,0,1,.928.868c.14.153.263.32.4.473-.057-.063-.111-.146-.024-.03l.087.119q.095.132.184.268a8.211,8.211,0,0,1,.614,1.112.963.963,0,0,0,.573.441.959.959,0,0,0,1.083-1.409,9.1,9.1,0,0,0-3.762-4.075A.959.959,0,0,0,768.476,68" transform="translate(-737.337 -63.571)" fill="#841918"/>
    <path id="Path_88" data-name="Path 88" d="M845.39,41.455l1.03,1.114a.987.987,0,0,0,1.357,0,.965.965,0,0,0,.281-.678l-.034-.255a.958.958,0,0,0-.247-.423l-1.03-1.114a.986.986,0,0,0-1.356,0,.965.965,0,0,0-.281.678l.034.255a.958.958,0,0,0,.247.423" transform="translate(-811.356 -38.227)" fill="#841918"/>
    <path id="Path_89" data-name="Path 89" d="M54.182,205.143c.053-.157.112-.311.173-.464.048-.122-.025.046-.033.077a.626.626,0,0,1,.045-.1q.051-.113.106-.224a7.86,7.86,0,0,1,.491-.86c.086-.13.176-.257.269-.383s-.106.133-.033.041l.069-.086q.078-.1.159-.19a7.967,7.967,0,0,1,.693-.707.966.966,0,0,0,0-1.357.981.981,0,0,0-1.357,0,8.89,8.89,0,0,0-2.431,3.743.966.966,0,0,0,.67,1.18.982.982,0,0,0,1.18-.67" transform="translate(-50.204 -192.605)" fill="#841918"/>
    <path id="Path_90" data-name="Path 90" d="M1.788,187.467l1.049-1.445a.714.714,0,0,0,.114-.357.727.727,0,0,0-.017-.382.978.978,0,0,0-.441-.573.968.968,0,0,0-.739-.1l-.229.1a.964.964,0,0,0-.344.344L.132,186.5a.714.714,0,0,0-.114.357.727.727,0,0,0,.017.382.978.978,0,0,0,.441.573.968.968,0,0,0,.739.1l.229-.1a.964.964,0,0,0,.344-.344" transform="translate(0 -177.204)" fill="#841918"/>
  </g>
</svg>
