<svg xmlns="http://www.w3.org/2000/svg" xmlns:xlink="http://www.w3.org/1999/xlink" width="84.378" height="75.339" viewBox="0 0 84.378 75.339">
  <defs>
    <clipPath id="clip-path">
      <rect id="Rectangle_29" data-name="Rectangle 29" width="84.378" height="75.339" fill="none"/>
    </clipPath>
  </defs>
  <g id="Group_4" data-name="Group 4" transform="translate(0 0)">
    <g id="Group_3" data-name="Group 3" transform="translate(0 0)" clip-path="url(#clip-path)">
      <path id="Path_37" data-name="Path 37" d="M75.971,67.194H8.409A8.42,8.42,0,0,1,0,58.785V15.921A8.418,8.418,0,0,1,8.409,7.512H75.971a8.418,8.418,0,0,1,8.409,8.409V58.785a8.42,8.42,0,0,1-8.409,8.409M8.409,10.412a5.517,5.517,0,0,0-5.51,5.51V58.785a5.517,5.517,0,0,0,5.51,5.51H75.971a5.517,5.517,0,0,0,5.51-5.51V15.921a5.517,5.517,0,0,0-5.51-5.51Z" transform="translate(0 8.147)" fill="#fff"/>
      <path id="Path_38" data-name="Path 38" d="M20.509,29.117H10.747a3.773,3.773,0,0,1-3.769-3.769V21.481a3.773,3.773,0,0,1,3.769-3.769h9.762a3.773,3.773,0,0,1,3.769,3.769v3.867a3.773,3.773,0,0,1-3.769,3.769m-9.762-8.505a.87.87,0,0,0-.869.869v3.867a.87.87,0,0,0,.869.869h9.762a.87.87,0,0,0,.869-.869V21.481a.87.87,0,0,0-.869-.869Z" transform="translate(7.568 19.21)" fill="#fff"/>
      <path id="Path_39" data-name="Path 39" d="M38.731,29.117H28.969A3.773,3.773,0,0,1,25.2,25.348V21.481a3.773,3.773,0,0,1,3.769-3.769h9.762A3.773,3.773,0,0,1,42.5,21.481v3.867a3.773,3.773,0,0,1-3.769,3.769m-9.762-8.505a.87.87,0,0,0-.869.869v3.867a.87.87,0,0,0,.869.869h9.762a.87.87,0,0,0,.869-.869V21.481a.87.87,0,0,0-.869-.869Z" transform="translate(27.332 19.21)" fill="#fff"/>
      <path id="Path_40" data-name="Path 40" d="M74.81,34.913H68.381a1.449,1.449,0,0,1-1.449-1.451v-.917a.872.872,0,0,0-.869-.871H56.3a.874.874,0,0,0-.871.871v.917a1.449,1.449,0,0,1-1.449,1.451H30.4a1.449,1.449,0,0,1-1.451-1.451v-.917a.872.872,0,0,0-.869-.871H18.315a.872.872,0,0,0-.869.871v.917A1.451,1.451,0,0,1,16,34.913H9.568A9.579,9.579,0,0,1,0,25.345V15.92A8.418,8.418,0,0,1,8.409,7.511H75.969a8.418,8.418,0,0,1,8.409,8.409v9.424a9.579,9.579,0,0,1-9.568,9.568m-5.016-2.9H74.81a6.676,6.676,0,0,0,6.669-6.669V15.92a5.515,5.515,0,0,0-5.51-5.51H8.409A5.515,5.515,0,0,0,2.9,15.92v9.424a6.676,6.676,0,0,0,6.669,6.669h5.016a3.773,3.773,0,0,1,3.731-3.237h9.762a3.774,3.774,0,0,1,3.731,3.237H52.567A3.776,3.776,0,0,1,56.3,28.776h9.762a3.774,3.774,0,0,1,3.731,3.237" transform="translate(0 8.146)" fill="#fff"/>
      <path id="Path_41" data-name="Path 41" d="M17.5,27.791H10.108A1.45,1.45,0,0,1,8.659,26.34v-13.8a1.449,1.449,0,0,1,1.449-1.451H17.5a1.451,1.451,0,0,1,1.451,1.451v13.8A1.452,1.452,0,0,1,17.5,27.791m-5.943-2.9h4.494v-10.9H11.559Z" transform="translate(9.391 12.031)" fill="#fff"/>
      <path id="Path_42" data-name="Path 42" d="M35.724,27.791H28.33a1.45,1.45,0,0,1-1.449-1.451v-13.8a1.449,1.449,0,0,1,1.449-1.451h7.394a1.451,1.451,0,0,1,1.451,1.451v13.8a1.452,1.452,0,0,1-1.451,1.451m-5.943-2.9h4.494v-10.9H29.781Z" transform="translate(29.155 12.031)" fill="#fff"/>
      <path id="Path_43" data-name="Path 43" d="M46.742,34.336H6.92a1.45,1.45,0,0,1,0-2.9H46.742a1.45,1.45,0,0,1,0,2.9" transform="translate(5.934 34.095)" fill="#fff"/>
      <path id="Path_44" data-name="Path 44" d="M45.606,15.39H13.228a1.449,1.449,0,0,1-1.451-1.451V7.85a4.934,4.934,0,0,1,4.93-4.928H42.127a4.934,4.934,0,0,1,4.93,4.928v6.089a1.451,1.451,0,0,1-1.451,1.451m-30.929-2.9H44.155V7.85a2.031,2.031,0,0,0-2.028-2.03H16.707a2.033,2.033,0,0,0-2.03,2.03Z" transform="translate(12.773 3.169)" fill="#fff"/>
      <path id="Path_45" data-name="Path 45" d="M54.863,18.559H10.307a1.449,1.449,0,0,1-1.451-1.451v-8.7A8.42,8.42,0,0,1,17.265,0H47.9a8.42,8.42,0,0,1,8.409,8.409v8.7a1.451,1.451,0,0,1-1.451,1.451m-43.107-2.9H53.414V8.409A5.515,5.515,0,0,0,47.9,2.9H17.265a5.515,5.515,0,0,0-5.51,5.507Z" transform="translate(9.605 0)" fill="#fff"/>
    </g>
  </g>
</svg>
